<mxfile host="Electron" modified="2023-05-29T11:09:12.497Z" agent="Mozilla/5.0 (Windows NT 10.0; Win64; x64) AppleWebKit/537.36 (KHTML, like Gecko) draw.io/21.2.8 Chrome/112.0.5615.165 Electron/24.2.0 Safari/537.36" etag="KSxKHUPj-CleLenK2tNM" version="21.2.8" type="device">
  <diagram name="Page-1" id="0jEpwzccB16sK8-vxyMA">
    <mxGraphModel dx="407" dy="286" grid="1" gridSize="10" guides="1" tooltips="1" connect="1" arrows="1" fold="1" page="1" pageScale="1" pageWidth="827" pageHeight="1169" math="0" shadow="0">
      <root>
        <mxCell id="0" />
        <mxCell id="1" parent="0" />
        <mxCell id="Xwhkaj1Jy1fErfuQQ5pJ-2" value="&lt;b&gt;+&lt;/b&gt;" style="rounded=0;whiteSpace=wrap;html=1;" vertex="1" parent="1">
          <mxGeometry x="200" y="160" width="40" height="80" as="geometry" />
        </mxCell>
        <mxCell id="Xwhkaj1Jy1fErfuQQ5pJ-5" value="" style="shape=waypoint;sketch=0;fillStyle=solid;size=6;pointerEvents=1;points=[];fillColor=none;resizable=0;rotatable=0;perimeter=centerPerimeter;snapToPoint=1;" vertex="1" parent="1">
          <mxGeometry x="210" y="585" width="20" height="20" as="geometry" />
        </mxCell>
        <mxCell id="Xwhkaj1Jy1fErfuQQ5pJ-6" value="" style="shape=waypoint;sketch=0;fillStyle=solid;size=6;pointerEvents=1;points=[];fillColor=none;resizable=0;rotatable=0;perimeter=centerPerimeter;snapToPoint=1;" vertex="1" parent="1">
          <mxGeometry x="210" y="605" width="20" height="20" as="geometry" />
        </mxCell>
        <mxCell id="Xwhkaj1Jy1fErfuQQ5pJ-7" value="" style="shape=waypoint;sketch=0;fillStyle=solid;size=6;pointerEvents=1;points=[];fillColor=none;resizable=0;rotatable=0;perimeter=centerPerimeter;snapToPoint=1;" vertex="1" parent="1">
          <mxGeometry x="210" y="625" width="20" height="20" as="geometry" />
        </mxCell>
        <mxCell id="Xwhkaj1Jy1fErfuQQ5pJ-49" value="&lt;b&gt;+&lt;/b&gt;" style="rounded=0;whiteSpace=wrap;html=1;" vertex="1" parent="1">
          <mxGeometry x="200" y="320" width="40" height="80" as="geometry" />
        </mxCell>
        <mxCell id="Xwhkaj1Jy1fErfuQQ5pJ-56" value="&lt;b&gt;+&lt;/b&gt;" style="rounded=0;whiteSpace=wrap;html=1;" vertex="1" parent="1">
          <mxGeometry x="200" y="480" width="40" height="80" as="geometry" />
        </mxCell>
        <mxCell id="Xwhkaj1Jy1fErfuQQ5pJ-77" value="&lt;b&gt;+&lt;/b&gt;" style="rounded=0;whiteSpace=wrap;html=1;" vertex="1" parent="1">
          <mxGeometry x="200" y="990" width="40" height="80" as="geometry" />
        </mxCell>
        <mxCell id="Xwhkaj1Jy1fErfuQQ5pJ-88" value="&lt;b&gt;+&lt;/b&gt;" style="rounded=0;whiteSpace=wrap;html=1;" vertex="1" parent="1">
          <mxGeometry x="200" y="670" width="40" height="80" as="geometry" />
        </mxCell>
        <mxCell id="Xwhkaj1Jy1fErfuQQ5pJ-95" value="&lt;b&gt;+&lt;/b&gt;" style="rounded=0;whiteSpace=wrap;html=1;" vertex="1" parent="1">
          <mxGeometry x="200" y="830" width="40" height="80" as="geometry" />
        </mxCell>
        <mxCell id="Xwhkaj1Jy1fErfuQQ5pJ-102" value="&lt;b&gt;+&lt;/b&gt;" style="rounded=0;whiteSpace=wrap;html=1;" vertex="1" parent="1">
          <mxGeometry x="394" y="290" width="40" height="140" as="geometry" />
        </mxCell>
        <mxCell id="Xwhkaj1Jy1fErfuQQ5pJ-103" value="" style="shape=flexArrow;endArrow=classic;html=1;rounded=0;entryX=0;entryY=0.75;entryDx=0;entryDy=0;exitX=1;exitY=0.5;exitDx=0;exitDy=0;edgeStyle=orthogonalEdgeStyle;fillColor=#8A8A8A;strokeColor=none;" edge="1" parent="1" source="Xwhkaj1Jy1fErfuQQ5pJ-56" target="Xwhkaj1Jy1fErfuQQ5pJ-102">
          <mxGeometry width="50" height="50" relative="1" as="geometry">
            <mxPoint x="30" y="670" as="sourcePoint" />
            <mxPoint x="80" y="620" as="targetPoint" />
          </mxGeometry>
        </mxCell>
        <mxCell id="Xwhkaj1Jy1fErfuQQ5pJ-104" value="" style="shape=flexArrow;endArrow=classic;html=1;rounded=0;entryX=0;entryY=0.5;entryDx=0;entryDy=0;exitX=1;exitY=0.5;exitDx=0;exitDy=0;edgeStyle=orthogonalEdgeStyle;fillColor=#8A8A8A;strokeColor=none;" edge="1" parent="1" source="Xwhkaj1Jy1fErfuQQ5pJ-49" target="Xwhkaj1Jy1fErfuQQ5pJ-102">
          <mxGeometry width="50" height="50" relative="1" as="geometry">
            <mxPoint x="250" y="530" as="sourcePoint" />
            <mxPoint x="404" y="405" as="targetPoint" />
          </mxGeometry>
        </mxCell>
        <mxCell id="Xwhkaj1Jy1fErfuQQ5pJ-105" value="" style="shape=flexArrow;endArrow=classic;html=1;rounded=0;entryX=0;entryY=0.25;entryDx=0;entryDy=0;exitX=1;exitY=0.5;exitDx=0;exitDy=0;edgeStyle=orthogonalEdgeStyle;fillColor=#8A8A8A;strokeColor=none;" edge="1" parent="1" source="Xwhkaj1Jy1fErfuQQ5pJ-2" target="Xwhkaj1Jy1fErfuQQ5pJ-102">
          <mxGeometry width="50" height="50" relative="1" as="geometry">
            <mxPoint x="250" y="530" as="sourcePoint" />
            <mxPoint x="404" y="405" as="targetPoint" />
          </mxGeometry>
        </mxCell>
        <mxCell id="Xwhkaj1Jy1fErfuQQ5pJ-110" value="granule_sum[2:0]" style="edgeLabel;html=1;align=center;verticalAlign=middle;resizable=0;points=[];" vertex="1" connectable="0" parent="Xwhkaj1Jy1fErfuQQ5pJ-105">
          <mxGeometry x="-0.8065" y="3" relative="1" as="geometry">
            <mxPoint x="23" y="-17" as="offset" />
          </mxGeometry>
        </mxCell>
        <mxCell id="Xwhkaj1Jy1fErfuQQ5pJ-106" value="&lt;b&gt;+&lt;/b&gt;" style="rounded=0;whiteSpace=wrap;html=1;fillColor=#dae8fc;strokeColor=#6c8ebf;" vertex="1" parent="1">
          <mxGeometry x="394" y="800" width="40" height="140" as="geometry" />
        </mxCell>
        <mxCell id="Xwhkaj1Jy1fErfuQQ5pJ-107" value="" style="shape=flexArrow;endArrow=classic;html=1;rounded=0;entryX=0;entryY=0.25;entryDx=0;entryDy=0;exitX=1;exitY=0.5;exitDx=0;exitDy=0;edgeStyle=orthogonalEdgeStyle;fillColor=#8A8A8A;strokeColor=none;" edge="1" parent="1" source="Xwhkaj1Jy1fErfuQQ5pJ-88" target="Xwhkaj1Jy1fErfuQQ5pJ-106">
          <mxGeometry width="50" height="50" relative="1" as="geometry">
            <mxPoint x="250" y="530" as="sourcePoint" />
            <mxPoint x="404" y="405" as="targetPoint" />
          </mxGeometry>
        </mxCell>
        <mxCell id="Xwhkaj1Jy1fErfuQQ5pJ-108" value="" style="shape=flexArrow;endArrow=classic;html=1;rounded=0;entryX=0;entryY=0.5;entryDx=0;entryDy=0;exitX=1;exitY=0.5;exitDx=0;exitDy=0;edgeStyle=orthogonalEdgeStyle;fillColor=#8A8A8A;strokeColor=none;" edge="1" parent="1" source="Xwhkaj1Jy1fErfuQQ5pJ-95" target="Xwhkaj1Jy1fErfuQQ5pJ-106">
          <mxGeometry width="50" height="50" relative="1" as="geometry">
            <mxPoint x="250" y="720" as="sourcePoint" />
            <mxPoint x="404" y="845" as="targetPoint" />
          </mxGeometry>
        </mxCell>
        <mxCell id="Xwhkaj1Jy1fErfuQQ5pJ-109" value="" style="shape=flexArrow;endArrow=classic;html=1;rounded=0;entryX=0;entryY=0.75;entryDx=0;entryDy=0;exitX=1;exitY=0.5;exitDx=0;exitDy=0;edgeStyle=orthogonalEdgeStyle;fillColor=#8A8A8A;strokeColor=none;" edge="1" parent="1" source="Xwhkaj1Jy1fErfuQQ5pJ-77" target="Xwhkaj1Jy1fErfuQQ5pJ-106">
          <mxGeometry width="50" height="50" relative="1" as="geometry">
            <mxPoint x="260" y="730" as="sourcePoint" />
            <mxPoint x="414" y="855" as="targetPoint" />
          </mxGeometry>
        </mxCell>
        <mxCell id="Xwhkaj1Jy1fErfuQQ5pJ-111" value="granule_sum[2:0]" style="edgeLabel;html=1;align=center;verticalAlign=middle;resizable=0;points=[];" vertex="1" connectable="0" parent="1">
          <mxGeometry x="290" y="375" as="geometry" />
        </mxCell>
        <mxCell id="Xwhkaj1Jy1fErfuQQ5pJ-112" value="granule_sum[2:0]" style="edgeLabel;html=1;align=center;verticalAlign=middle;resizable=0;points=[];" vertex="1" connectable="0" parent="1">
          <mxGeometry x="290" y="535" as="geometry" />
        </mxCell>
        <mxCell id="Xwhkaj1Jy1fErfuQQ5pJ-113" value="granule_sum[2:0]" style="edgeLabel;html=1;align=center;verticalAlign=middle;resizable=0;points=[];" vertex="1" connectable="0" parent="1">
          <mxGeometry x="290" y="690" as="geometry" />
        </mxCell>
        <mxCell id="Xwhkaj1Jy1fErfuQQ5pJ-114" value="granule_sum[2:0]" style="edgeLabel;html=1;align=center;verticalAlign=middle;resizable=0;points=[];" vertex="1" connectable="0" parent="1">
          <mxGeometry x="290" y="885" as="geometry" />
        </mxCell>
        <mxCell id="Xwhkaj1Jy1fErfuQQ5pJ-115" value="granule_sum[2:0]" style="edgeLabel;html=1;align=center;verticalAlign=middle;resizable=0;points=[];" vertex="1" connectable="0" parent="1">
          <mxGeometry x="290" y="1045" as="geometry" />
        </mxCell>
        <mxCell id="Xwhkaj1Jy1fErfuQQ5pJ-116" value="" style="shape=waypoint;sketch=0;fillStyle=solid;size=6;pointerEvents=1;points=[];fillColor=none;resizable=0;rotatable=0;perimeter=centerPerimeter;snapToPoint=1;" vertex="1" parent="1">
          <mxGeometry x="600" y="607.5" width="20" height="20" as="geometry" />
        </mxCell>
        <mxCell id="Xwhkaj1Jy1fErfuQQ5pJ-117" value="" style="shape=flexArrow;endArrow=classic;html=1;rounded=0;exitX=1;exitY=0.5;exitDx=0;exitDy=0;edgeStyle=orthogonalEdgeStyle;fillColor=#8A8A8A;strokeColor=none;" edge="1" parent="1" source="Xwhkaj1Jy1fErfuQQ5pJ-102">
          <mxGeometry width="50" height="50" relative="1" as="geometry">
            <mxPoint x="440" y="358.82" as="sourcePoint" />
            <mxPoint x="540" y="360" as="targetPoint" />
          </mxGeometry>
        </mxCell>
        <mxCell id="Xwhkaj1Jy1fErfuQQ5pJ-118" value="" style="shape=flexArrow;endArrow=classic;html=1;rounded=0;exitX=1;exitY=0.5;exitDx=0;exitDy=0;edgeStyle=orthogonalEdgeStyle;fillColor=#8A8A8A;strokeColor=none;" edge="1" parent="1" source="Xwhkaj1Jy1fErfuQQ5pJ-106">
          <mxGeometry width="50" height="50" relative="1" as="geometry">
            <mxPoint x="444" y="370" as="sourcePoint" />
            <mxPoint x="540" y="870" as="targetPoint" />
          </mxGeometry>
        </mxCell>
        <mxCell id="Xwhkaj1Jy1fErfuQQ5pJ-119" value="" style="shape=waypoint;sketch=0;fillStyle=solid;size=6;pointerEvents=1;points=[];fillColor=none;resizable=0;rotatable=0;perimeter=centerPerimeter;snapToPoint=1;" vertex="1" parent="1">
          <mxGeometry x="620" y="607.5" width="20" height="20" as="geometry" />
        </mxCell>
        <mxCell id="Xwhkaj1Jy1fErfuQQ5pJ-120" value="" style="shape=waypoint;sketch=0;fillStyle=solid;size=6;pointerEvents=1;points=[];fillColor=none;resizable=0;rotatable=0;perimeter=centerPerimeter;snapToPoint=1;" vertex="1" parent="1">
          <mxGeometry x="640" y="607.5" width="20" height="20" as="geometry" />
        </mxCell>
        <mxCell id="Xwhkaj1Jy1fErfuQQ5pJ-121" value="&lt;b&gt;+&lt;/b&gt;" style="rounded=0;whiteSpace=wrap;html=1;fillColor=#dae8fc;strokeColor=#6c8ebf;" vertex="1" parent="1">
          <mxGeometry x="804" y="547.5" width="40" height="140" as="geometry" />
        </mxCell>
        <mxCell id="Xwhkaj1Jy1fErfuQQ5pJ-125" value="" style="shape=flexArrow;endArrow=classic;html=1;rounded=0;exitX=1;exitY=0.5;exitDx=0;exitDy=0;edgeStyle=orthogonalEdgeStyle;fillColor=#8A8A8A;strokeColor=none;" edge="1" parent="1" source="Xwhkaj1Jy1fErfuQQ5pJ-121">
          <mxGeometry width="50" height="50" relative="1" as="geometry">
            <mxPoint x="854" y="117.5" as="sourcePoint" />
            <mxPoint x="930" y="617.5" as="targetPoint" />
          </mxGeometry>
        </mxCell>
        <mxCell id="Xwhkaj1Jy1fErfuQQ5pJ-126" value="sum[0][0]" style="text;html=1;align=center;verticalAlign=middle;resizable=0;points=[];autosize=1;strokeColor=none;fillColor=none;" vertex="1" parent="1">
          <mxGeometry x="435" y="330" width="70" height="30" as="geometry" />
        </mxCell>
        <mxCell id="Xwhkaj1Jy1fErfuQQ5pJ-128" value="sum[0][N/18-1]" style="text;html=1;align=center;verticalAlign=middle;resizable=0;points=[];autosize=1;strokeColor=none;fillColor=none;" vertex="1" parent="1">
          <mxGeometry x="430" y="840" width="100" height="30" as="geometry" />
        </mxCell>
        <mxCell id="Xwhkaj1Jy1fErfuQQ5pJ-130" value="" style="shape=flexArrow;endArrow=classic;html=1;rounded=0;edgeStyle=orthogonalEdgeStyle;fillColor=#8A8A8A;strokeColor=none;entryX=0;entryY=0.75;entryDx=0;entryDy=0;" edge="1" parent="1" target="Xwhkaj1Jy1fErfuQQ5pJ-121">
          <mxGeometry width="50" height="50" relative="1" as="geometry">
            <mxPoint x="690" y="653" as="sourcePoint" />
            <mxPoint x="794" y="687.5" as="targetPoint" />
            <Array as="points">
              <mxPoint x="690" y="653" />
              <mxPoint x="750" y="653" />
            </Array>
          </mxGeometry>
        </mxCell>
        <mxCell id="Xwhkaj1Jy1fErfuQQ5pJ-131" value="" style="shape=flexArrow;endArrow=classic;html=1;rounded=0;fillColor=#8A8A8A;strokeColor=none;entryX=0;entryY=0.5;entryDx=0;entryDy=0;" edge="1" parent="1" target="Xwhkaj1Jy1fErfuQQ5pJ-121">
          <mxGeometry width="50" height="50" relative="1" as="geometry">
            <mxPoint x="690" y="618" as="sourcePoint" />
            <mxPoint x="804" y="614.66" as="targetPoint" />
          </mxGeometry>
        </mxCell>
        <mxCell id="Xwhkaj1Jy1fErfuQQ5pJ-133" value="" style="shape=flexArrow;endArrow=classic;html=1;rounded=0;fillColor=#8A8A8A;strokeColor=none;entryX=0;entryY=0.25;entryDx=0;entryDy=0;" edge="1" parent="1" target="Xwhkaj1Jy1fErfuQQ5pJ-121">
          <mxGeometry width="50" height="50" relative="1" as="geometry">
            <mxPoint x="690" y="583" as="sourcePoint" />
            <mxPoint x="770" y="560" as="targetPoint" />
          </mxGeometry>
        </mxCell>
        <mxCell id="Xwhkaj1Jy1fErfuQQ5pJ-151" value="sum[log3(N/6)-1][0]" style="edgeLabel;html=1;align=center;verticalAlign=middle;resizable=0;points=[];" vertex="1" connectable="0" parent="Xwhkaj1Jy1fErfuQQ5pJ-133">
          <mxGeometry x="-0.4485" y="2" relative="1" as="geometry">
            <mxPoint x="-1" y="-11" as="offset" />
          </mxGeometry>
        </mxCell>
        <mxCell id="Xwhkaj1Jy1fErfuQQ5pJ-135" value="sum_out" style="text;html=1;align=center;verticalAlign=middle;resizable=0;points=[];autosize=1;strokeColor=none;fillColor=none;" vertex="1" parent="1">
          <mxGeometry x="844" y="585" width="70" height="30" as="geometry" />
        </mxCell>
        <mxCell id="Xwhkaj1Jy1fErfuQQ5pJ-136" value="" style="shape=flexArrow;endArrow=classic;html=1;rounded=0;fillColor=#000000;strokeColor=none;" edge="1" parent="1">
          <mxGeometry width="50" height="50" relative="1" as="geometry">
            <mxPoint x="86" y="199.5" as="sourcePoint" />
            <mxPoint x="200" y="200" as="targetPoint" />
          </mxGeometry>
        </mxCell>
        <mxCell id="Xwhkaj1Jy1fErfuQQ5pJ-138" value="padded_vector[5:0]" style="edgeLabel;html=1;align=center;verticalAlign=middle;resizable=0;points=[];" vertex="1" connectable="0" parent="Xwhkaj1Jy1fErfuQQ5pJ-136">
          <mxGeometry x="-0.3335" y="3" relative="1" as="geometry">
            <mxPoint x="-4" y="-17" as="offset" />
          </mxGeometry>
        </mxCell>
        <mxCell id="Xwhkaj1Jy1fErfuQQ5pJ-139" value="" style="shape=flexArrow;endArrow=classic;html=1;rounded=0;fillColor=#8A8A8A;strokeColor=none;" edge="1" parent="1">
          <mxGeometry width="50" height="50" relative="1" as="geometry">
            <mxPoint x="86" y="359.5" as="sourcePoint" />
            <mxPoint x="200" y="360" as="targetPoint" />
          </mxGeometry>
        </mxCell>
        <mxCell id="Xwhkaj1Jy1fErfuQQ5pJ-140" value="padded_vector[11:6]" style="edgeLabel;html=1;align=center;verticalAlign=middle;resizable=0;points=[];" vertex="1" connectable="0" parent="Xwhkaj1Jy1fErfuQQ5pJ-139">
          <mxGeometry x="-0.3335" y="3" relative="1" as="geometry">
            <mxPoint x="-4" y="-17" as="offset" />
          </mxGeometry>
        </mxCell>
        <mxCell id="Xwhkaj1Jy1fErfuQQ5pJ-141" value="" style="shape=flexArrow;endArrow=classic;html=1;rounded=0;fillColor=#8A8A8A;strokeColor=none;" edge="1" parent="1">
          <mxGeometry width="50" height="50" relative="1" as="geometry">
            <mxPoint x="86" y="519.5" as="sourcePoint" />
            <mxPoint x="200" y="520" as="targetPoint" />
          </mxGeometry>
        </mxCell>
        <mxCell id="Xwhkaj1Jy1fErfuQQ5pJ-142" value="padded_vector[17:12]" style="edgeLabel;html=1;align=center;verticalAlign=middle;resizable=0;points=[];" vertex="1" connectable="0" parent="Xwhkaj1Jy1fErfuQQ5pJ-141">
          <mxGeometry x="-0.3335" y="3" relative="1" as="geometry">
            <mxPoint x="-4" y="-17" as="offset" />
          </mxGeometry>
        </mxCell>
        <mxCell id="Xwhkaj1Jy1fErfuQQ5pJ-145" value="" style="shape=flexArrow;endArrow=classic;html=1;rounded=0;fillColor=#8A8A8A;strokeColor=none;" edge="1" parent="1">
          <mxGeometry width="50" height="50" relative="1" as="geometry">
            <mxPoint x="86" y="1029.5" as="sourcePoint" />
            <mxPoint x="200" y="1030" as="targetPoint" />
          </mxGeometry>
        </mxCell>
        <mxCell id="Xwhkaj1Jy1fErfuQQ5pJ-146" value="padded_vector[(N-1):(N-6)]" style="edgeLabel;html=1;align=center;verticalAlign=middle;resizable=0;points=[];" vertex="1" connectable="0" parent="Xwhkaj1Jy1fErfuQQ5pJ-145">
          <mxGeometry x="-0.3335" y="3" relative="1" as="geometry">
            <mxPoint x="-14" y="-17" as="offset" />
          </mxGeometry>
        </mxCell>
        <mxCell id="Xwhkaj1Jy1fErfuQQ5pJ-147" value="" style="shape=flexArrow;endArrow=classic;html=1;rounded=0;fillColor=#8A8A8A;strokeColor=none;" edge="1" parent="1">
          <mxGeometry width="50" height="50" relative="1" as="geometry">
            <mxPoint x="86" y="869.5" as="sourcePoint" />
            <mxPoint x="200" y="870" as="targetPoint" />
          </mxGeometry>
        </mxCell>
        <mxCell id="Xwhkaj1Jy1fErfuQQ5pJ-148" value="padded_vector[(N-7):(N-12)]" style="edgeLabel;html=1;align=center;verticalAlign=middle;resizable=0;points=[];" vertex="1" connectable="0" parent="Xwhkaj1Jy1fErfuQQ5pJ-147">
          <mxGeometry x="-0.3335" y="3" relative="1" as="geometry">
            <mxPoint x="-14" y="-17" as="offset" />
          </mxGeometry>
        </mxCell>
        <mxCell id="Xwhkaj1Jy1fErfuQQ5pJ-149" value="" style="shape=flexArrow;endArrow=classic;html=1;rounded=0;fillColor=#8A8A8A;strokeColor=none;" edge="1" parent="1">
          <mxGeometry width="50" height="50" relative="1" as="geometry">
            <mxPoint x="86" y="709.5" as="sourcePoint" />
            <mxPoint x="200" y="710" as="targetPoint" />
          </mxGeometry>
        </mxCell>
        <mxCell id="Xwhkaj1Jy1fErfuQQ5pJ-150" value="padded_vector[(N-13):(N-18)]" style="edgeLabel;html=1;align=center;verticalAlign=middle;resizable=0;points=[];" vertex="1" connectable="0" parent="Xwhkaj1Jy1fErfuQQ5pJ-149">
          <mxGeometry x="-0.3335" y="3" relative="1" as="geometry">
            <mxPoint x="-14" y="-17" as="offset" />
          </mxGeometry>
        </mxCell>
        <mxCell id="Xwhkaj1Jy1fErfuQQ5pJ-152" value="sum[log3(N/6)-1][1]" style="edgeLabel;html=1;align=center;verticalAlign=middle;resizable=0;points=[];" vertex="1" connectable="0" parent="1">
          <mxGeometry x="719.9994972966637" y="605.0021759506998" as="geometry" />
        </mxCell>
        <mxCell id="Xwhkaj1Jy1fErfuQQ5pJ-153" value="sum[log3(N/6)-1][2]" style="edgeLabel;html=1;align=center;verticalAlign=middle;resizable=0;points=[];" vertex="1" connectable="0" parent="1">
          <mxGeometry x="719.9994972966637" y="635.0021759506998" as="geometry" />
        </mxCell>
        <mxCell id="Xwhkaj1Jy1fErfuQQ5pJ-154" value="" style="shape=curlyBracket;whiteSpace=wrap;html=1;rounded=1;labelPosition=left;verticalLabelPosition=middle;align=right;verticalAlign=middle;rotation=90;strokeWidth=3;" vertex="1" parent="1">
          <mxGeometry x="609" y="-125" width="20" height="450" as="geometry" />
        </mxCell>
        <mxCell id="Xwhkaj1Jy1fErfuQQ5pJ-156" value="PIPELINE_DEPTH = clog3(VECTOR_WIDTH/(GRANULE_WIDTH*3))+1" style="text;html=1;align=center;verticalAlign=middle;resizable=0;points=[];autosize=1;strokeColor=none;fillColor=none;fontStyle=1" vertex="1" parent="1">
          <mxGeometry x="407" y="58" width="420" height="30" as="geometry" />
        </mxCell>
        <mxCell id="Xwhkaj1Jy1fErfuQQ5pJ-157" value="" style="shape=curlyBracket;whiteSpace=wrap;html=1;rounded=1;labelPosition=left;verticalLabelPosition=middle;align=right;verticalAlign=middle;strokeWidth=3;" vertex="1" parent="1">
          <mxGeometry x="40" y="160" width="20" height="80" as="geometry" />
        </mxCell>
        <mxCell id="Xwhkaj1Jy1fErfuQQ5pJ-158" value="GRANULE_WIDTH = 6" style="text;html=1;align=center;verticalAlign=middle;resizable=0;points=[];autosize=1;strokeColor=none;fillColor=none;fontStyle=1;rotation=-90;" vertex="1" parent="1">
          <mxGeometry x="-50" y="178" width="150" height="30" as="geometry" />
        </mxCell>
        <mxCell id="Xwhkaj1Jy1fErfuQQ5pJ-159" value="&lt;b&gt;+&lt;/b&gt;" style="rounded=0;whiteSpace=wrap;html=1;fillColor=#dae8fc;strokeColor=#6c8ebf;" vertex="1" parent="1">
          <mxGeometry x="200" y="160" width="40" height="80" as="geometry" />
        </mxCell>
        <mxCell id="Xwhkaj1Jy1fErfuQQ5pJ-160" value="&lt;b&gt;+&lt;/b&gt;" style="rounded=0;whiteSpace=wrap;html=1;fillColor=#dae8fc;strokeColor=#6c8ebf;" vertex="1" parent="1">
          <mxGeometry x="200" y="320" width="40" height="80" as="geometry" />
        </mxCell>
        <mxCell id="Xwhkaj1Jy1fErfuQQ5pJ-161" value="&lt;b&gt;+&lt;/b&gt;" style="rounded=0;whiteSpace=wrap;html=1;fillColor=#dae8fc;strokeColor=#6c8ebf;" vertex="1" parent="1">
          <mxGeometry x="394" y="290" width="40" height="140" as="geometry" />
        </mxCell>
        <mxCell id="Xwhkaj1Jy1fErfuQQ5pJ-162" value="&lt;b&gt;+&lt;/b&gt;" style="rounded=0;whiteSpace=wrap;html=1;fillColor=#dae8fc;strokeColor=#6c8ebf;" vertex="1" parent="1">
          <mxGeometry x="200" y="480" width="40" height="80" as="geometry" />
        </mxCell>
        <mxCell id="Xwhkaj1Jy1fErfuQQ5pJ-163" value="&lt;b&gt;+&lt;/b&gt;" style="rounded=0;whiteSpace=wrap;html=1;fillColor=#dae8fc;strokeColor=#6c8ebf;" vertex="1" parent="1">
          <mxGeometry x="200" y="670" width="40" height="80" as="geometry" />
        </mxCell>
        <mxCell id="Xwhkaj1Jy1fErfuQQ5pJ-164" value="&lt;b&gt;+&lt;/b&gt;" style="rounded=0;whiteSpace=wrap;html=1;fillColor=#dae8fc;strokeColor=#6c8ebf;" vertex="1" parent="1">
          <mxGeometry x="200" y="830" width="40" height="80" as="geometry" />
        </mxCell>
        <mxCell id="Xwhkaj1Jy1fErfuQQ5pJ-165" value="&lt;b&gt;+&lt;/b&gt;" style="rounded=0;whiteSpace=wrap;html=1;fillColor=#dae8fc;strokeColor=#6c8ebf;" vertex="1" parent="1">
          <mxGeometry x="200" y="990" width="40" height="80" as="geometry" />
        </mxCell>
        <mxCell id="Xwhkaj1Jy1fErfuQQ5pJ-166" value="" style="shape=flexArrow;endArrow=classic;html=1;rounded=0;fillColor=#8A8A8A;strokeColor=none;" edge="1" parent="1">
          <mxGeometry width="50" height="50" relative="1" as="geometry">
            <mxPoint x="86" y="199.41" as="sourcePoint" />
            <mxPoint x="200" y="199.91" as="targetPoint" />
          </mxGeometry>
        </mxCell>
        <mxCell id="Xwhkaj1Jy1fErfuQQ5pJ-167" value="padded_vector[5:0]" style="edgeLabel;html=1;align=center;verticalAlign=middle;resizable=0;points=[];" vertex="1" connectable="0" parent="Xwhkaj1Jy1fErfuQQ5pJ-166">
          <mxGeometry x="-0.3335" y="3" relative="1" as="geometry">
            <mxPoint x="-4" y="-17" as="offset" />
          </mxGeometry>
        </mxCell>
      </root>
    </mxGraphModel>
  </diagram>
</mxfile>
